<?xml version="1.0" standalone="no"?>
<!DOCTYPE svg PUBLIC "-//W3C//DTD SVG 20010904//EN"
 "http://www.w3.org/TR/2001/REC-SVG-20010904/DTD/svg10.dtd">
<svg version="1.0" xmlns="http://www.w3.org/2000/svg"
 width="512.000000pt" height="512.000000pt" viewBox="0 0 512.000000 512.000000"
 preserveAspectRatio="xMidYMid meet">
<metadata>
Created by potrace 1.14, written by Peter Selinger 2001-2017
</metadata>
<g transform="translate(0.000000,512.000000) scale(0.100000,-0.100000)"
fill="#000000" stroke="none">
<path d="M513 5110 c-247 -50 -456 -262 -503 -511 -6 -33 -10 -783 -10 -2038
0 -2213 -5 -2056 71 -2210 72 -146 207 -261 379 -323 l65 -23 2015 -2 c2248
-3 2083 -8 2238 69 172 85 313 272 341 453 3 22 6 947 6 2055 l0 2015 -23 70
c-67 201 -204 344 -402 421 l-75 29 -2030 1 c-1117 1 -2049 -2 -2072 -6z"/>
</g>
</svg>
